<svg xmlns="http://www.w3.org/2000/svg" width="50" height="50" viewBox="0 0 50 50">
  <g id="Group_128" data-name="Group 128" transform="translate(-171 -713)">
    <g id="Rectangle_15" data-name="Rectangle 15" transform="translate(171 713)" fill="#fff" stroke="#999fae" stroke-width="1">
      <rect width="50" height="50" rx="15" stroke="none"/>
      <rect x="0.5" y="0.5" width="49" height="49" rx="14.5" fill="none"/>
    </g>
    <g id="Icon_ionic-logo-apple" data-name="Icon ionic-logo-apple" transform="translate(177.563 717.497)">
      <path id="Path_24" data-name="Path 24" d="M24.691,10.821c-2.537,0-3.609,1.246-5.376,1.246-1.812,0-3.194-1.238-5.391-1.238a7.325,7.325,0,0,0-5.9,3.655c-2.046,3.247-1.7,9.363,1.616,14.573,1.186,1.865,2.771,3.957,4.848,3.979h.038c1.8,0,2.341-1.216,4.825-1.231h.038c2.447,0,2.937,1.223,4.734,1.223h.038c2.077-.023,3.745-2.341,4.931-4.2a20.654,20.654,0,0,0,1.827-3.519,6.461,6.461,0,0,1-.823-11.545,7.1,7.1,0,0,0-5.4-2.945Z" transform="translate(0 0.467)"/>
      <path id="Path_25" data-name="Path 25" d="M23.333,4.5a6.6,6.6,0,0,0-4.3,2.386,6.006,6.006,0,0,0-1.4,4.591h.121A5.605,5.605,0,0,0,21.959,9.2a6.432,6.432,0,0,0,1.374-4.7Z" transform="translate(0.799)"/>
    </g>
  </g>
</svg>