<svg id="Iconly_Bold_Calendar" data-name="Iconly/Bold/Calendar" xmlns="http://www.w3.org/2000/svg" width="20" height="20" viewBox="0 0 20 20">
  <g id="Calendar" transform="translate(2.566 1.539)">
    <path id="Combined_Shape" data-name="Combined Shape" d="M4.648,16.421C1.564,16.421,0,15.015,0,12.242V5.875H14.881v6.367c0,2.773-1.566,4.179-4.656,4.179Zm5.507-4.026a.7.7,0,0,0,.688.7.7.7,0,0,0,0-1.4h-.007A.691.691,0,0,0,10.155,12.394Zm-3.4,0a.685.685,0,1,0,.688-.7H7.437A.7.7,0,0,0,6.756,12.394Zm-3.2-.5a.679.679,0,1,0,.481-.2A.674.674,0,0,0,3.557,11.89Zm6.605-2.475a.681.681,0,1,0,.681-.7A.682.682,0,0,0,10.162,9.415Zm-3.406,0a.685.685,0,1,0,.688-.7H7.437A.7.7,0,0,0,6.756,9.415Zm-3.4,0a.69.69,0,0,0,.682.7.672.672,0,0,0,.481-.2.708.708,0,0,0-.474-1.2H4.038A.694.694,0,0,0,3.356,9.415Zm11.518-3.54H13.731V5.549a3.622,3.622,0,0,0-.345-1.7,2.176,2.176,0,0,0-1.093-.991,3.764,3.764,0,0,0-1.132-.289v.6a.6.6,0,0,1-1.191,0V2.53H4.917V1.356H9.97V.595A.6.6,0,0,1,11.161.586V1.41a5.734,5.734,0,0,1,1.138.229V1.633a.668.668,0,0,0,.071.027l.037.013.051.019c.071.022.135.049.2.077l.036.015a.97.97,0,0,1,.1.04l.03.014c.066.028.132.062.177.086s.071.038.1.057L13.148,2a.757.757,0,0,1,.07.044l.045.03a3.512,3.512,0,0,1,.6.479l.006.011a2.418,2.418,0,0,1,.189.21l0,.01a4.334,4.334,0,0,1,.818,2.77v.317h0Zm-13.724,0H.006V5.561a4.337,4.337,0,0,1,.82-2.768l.011-.01c.034-.042.07-.082.107-.125l.075-.086.011-.01a3.361,3.361,0,0,1,.59-.479l.042-.027c.026-.017.051-.033.078-.047l.141-.081.089-.043.089-.043.063-.027.063-.027c.1-.039.173-.069.246-.092a.414.414,0,0,1,.089-.033.245.245,0,0,1,.039-.015l.033-.012h0v.005A5.726,5.726,0,0,1,3.72,1.414V.6A.6.6,0,0,1,4.911.6V3.179a.6.6,0,0,1-1.191,0v-.6a3.943,3.943,0,0,0-1.138.288A2.58,2.58,0,0,0,1.151,5.558v.317h0Z" transform="translate(0 0)" fill="#999fae"/>
  </g>
</svg>
