<svg xmlns="http://www.w3.org/2000/svg" width="20.214" height="22.46" viewBox="0 0 20.214 22.46">
  <path id="Icon_material-perm-contact-calendar" data-name="Icon material-perm-contact-calendar" d="M22.468,3.746H21.345V1.5H19.1V3.746H10.115V1.5H7.869V3.746H6.746A2.245,2.245,0,0,0,4.5,5.992V21.714A2.245,2.245,0,0,0,6.746,23.96H22.468a2.253,2.253,0,0,0,2.246-2.246V5.992A2.253,2.253,0,0,0,22.468,3.746ZM14.607,7.115a3.369,3.369,0,1,1-3.369,3.369A3.364,3.364,0,0,1,14.607,7.115Zm6.738,13.476H7.869V19.468c0-2.246,4.492-3.481,6.738-3.481s6.738,1.235,6.738,3.481Z" transform="translate(-4.5 -1.5)" fill="#5b5b5b"/>
</svg>
