<svg xmlns="http://www.w3.org/2000/svg" xmlns:xlink="http://www.w3.org/1999/xlink" width="50" height="50" viewBox="0 0 50 50">
  <defs>
    <linearGradient id="linear-gradient" x1="0.698" y1="0.043" x2="0.187" y2="0.889" gradientUnits="objectBoundingBox">
      <stop offset="0" stop-color="#6055cc"/>
      <stop offset="0.188" stop-color="#9f2cb5"/>
      <stop offset="0.394" stop-color="#d1278f"/>
      <stop offset="0.652" stop-color="#d62871"/>
      <stop offset="0.859" stop-color="#f97922"/>
      <stop offset="1" stop-color="#fed168"/>
    </linearGradient>
  </defs>
  <g id="Group_123" data-name="Group 123" transform="translate(-260 -690)">
    <circle id="Ellipse_58" data-name="Ellipse 58" cx="25" cy="25" r="25" transform="translate(260 690)" fill="url(#linear-gradient)"/>
    <path id="Icon_awesome-instagram" data-name="Icon awesome-instagram" d="M13.545,8.837a6.945,6.945,0,1,0,6.945,6.945A6.934,6.934,0,0,0,13.545,8.837Zm0,11.461a4.515,4.515,0,1,1,4.515-4.515A4.524,4.524,0,0,1,13.545,20.3ZM22.395,8.553a1.62,1.62,0,1,1-1.62-1.62A1.616,1.616,0,0,1,22.395,8.553Zm4.6,1.644a8.017,8.017,0,0,0-2.188-5.676,8.07,8.07,0,0,0-5.676-2.188c-2.237-.127-8.94-.127-11.177,0A8.058,8.058,0,0,0,2.278,4.515,8.043,8.043,0,0,0,.09,10.191c-.127,2.237-.127,8.94,0,11.177a8.017,8.017,0,0,0,2.188,5.676,8.08,8.08,0,0,0,5.676,2.188c2.237.127,8.94.127,11.177,0a8.017,8.017,0,0,0,5.676-2.188,8.07,8.07,0,0,0,2.188-5.676c.127-2.237.127-8.934,0-11.171Zm-2.889,13.57a4.571,4.571,0,0,1-2.575,2.575c-1.783.707-6.014.544-7.985.544s-6.208.157-7.985-.544a4.571,4.571,0,0,1-2.575-2.575c-.707-1.783-.544-6.014-.544-7.985S2.284,9.574,2.985,7.8A4.571,4.571,0,0,1,5.56,5.222c1.783-.707,6.014-.544,7.985-.544s6.208-.157,7.985.544A4.571,4.571,0,0,1,24.106,7.8c.707,1.783.544,6.014.544,7.985S24.813,21.99,24.106,23.767Z" transform="translate(271.013 698.804)" fill="#fff"/>
  </g>
</svg>
