<svg xmlns="http://www.w3.org/2000/svg" width="30" height="30" viewBox="0 0 30 30">
  <path id="Icon_awesome-smile" data-name="Icon awesome-smile" d="M15,.562a15,15,0,1,0,15,15A15,15,0,0,0,15,.562Zm4.839,10.161A1.935,1.935,0,1,1,17.9,12.659,1.933,1.933,0,0,1,19.839,10.724Zm-9.677,0a1.935,1.935,0,1,1-1.935,1.935A1.933,1.933,0,0,1,10.161,10.724ZM21.944,21.018a9.035,9.035,0,0,1-13.887,0,.968.968,0,0,1,1.488-1.24,7.107,7.107,0,0,0,10.911,0A.968.968,0,0,1,21.944,21.018Z" transform="translate(0 -0.563)" fill="#903e52"/>
</svg>
