<svg id="Group_89" data-name="Group 89" xmlns="http://www.w3.org/2000/svg" width="83.826" height="13.818" viewBox="0 0 83.826 13.818">
  <path id="Icon_awesome-star" data-name="Icon awesome-star" d="M7.885.48,6.123,4.053l-3.942.575A.864.864,0,0,0,1.7,6.1L4.555,8.88l-.675,3.926a.863.863,0,0,0,1.252.909L8.66,11.862l3.527,1.854a.864.864,0,0,0,1.252-.909L12.764,8.88,15.616,6.1a.864.864,0,0,0-.478-1.473L11.2,4.053,9.434.48a.864.864,0,0,0-1.549,0Z" transform="translate(-1.441 0.001)" fill="gold"/>
  <path id="Icon_awesome-star-2" data-name="Icon awesome-star" d="M7.885.48,6.123,4.053l-3.942.575A.864.864,0,0,0,1.7,6.1L4.555,8.88l-.675,3.926a.863.863,0,0,0,1.252.909L8.66,11.862l3.527,1.854a.864.864,0,0,0,1.252-.909L12.764,8.88,15.616,6.1a.864.864,0,0,0-.478-1.473L11.2,4.053,9.434.48a.864.864,0,0,0-1.549,0Z" transform="translate(36.746 0.001)" fill="gold"/>
  <path id="Icon_awesome-star-3" data-name="Icon awesome-star" d="M7.885.48,6.123,4.053l-3.942.575A.864.864,0,0,0,1.7,6.1L4.555,8.88l-.675,3.926a.863.863,0,0,0,1.252.909L8.66,11.862l3.527,1.854a.864.864,0,0,0,1.252-.909L12.764,8.88,15.616,6.1a.864.864,0,0,0-.478-1.473L11.2,4.053,9.434.48a.864.864,0,0,0-1.549,0Z" transform="translate(17.652 0.001)" fill="gold"/>
  <path id="Icon_awesome-star-4" data-name="Icon awesome-star" d="M7.885.48,6.123,4.053l-3.942.575A.864.864,0,0,0,1.7,6.1L4.555,8.88l-.675,3.926a.863.863,0,0,0,1.252.909L8.66,11.862l3.527,1.854a.864.864,0,0,0,1.252-.909L12.764,8.88,15.616,6.1a.864.864,0,0,0-.478-1.473L11.2,4.053,9.434.48a.864.864,0,0,0-1.549,0Z" transform="translate(55.84 0.001)" fill="gold"/>
  <path id="Intersection_1" data-name="Intersection 1" d="M3.758.1.233,1.954,0,1.831V13.786a.864.864,0,0,0,1.006-.45L2.768,9.763l3.943-.575a.863.863,0,0,0,.477-1.473L4.336,4.935l.675-3.927A.862.862,0,0,0,3.758.1Z" transform="translate(83.826 13.816) rotate(180)" fill="gold"/>
</svg>
