<svg id="Iconly_Bold_Search" data-name="Iconly/Bold/Search" xmlns="http://www.w3.org/2000/svg" width="16" height="17" viewBox="0 0 16 17">
  <g id="Search" transform="translate(1.353 1.353)">
    <path id="Search-2" data-name="Search" d="M12,13.268,10.57,11.624a.733.733,0,0,1,0-1.031.667.667,0,0,1,.943,0l1.728,1.4h.03a.912.912,0,0,1,0,1.28.89.89,0,0,1-1.267,0ZM0,5.866A5.836,5.836,0,0,1,5.8,0a5.772,5.772,0,0,1,4.1,1.719,5.9,5.9,0,0,1,1.7,4.148,5.836,5.836,0,0,1-5.8,5.867A5.836,5.836,0,0,1,0,5.866Z" fill="#5b5b5b"/>
  </g>
</svg>
