<svg xmlns="http://www.w3.org/2000/svg" width="50" height="50" viewBox="0 0 50 50">
  <g id="Group_125" data-name="Group 125" transform="translate(-130 -690)">
    <g id="Group_69" data-name="Group 69" transform="translate(130.012 690)">
      <circle id="Ellipse_57" data-name="Ellipse 57" cx="25" cy="25" r="25" transform="translate(-0.012)" fill="#01aaef"/>
      <path id="Icon_awesome-twitter" data-name="Icon awesome-twitter" d="M22.809,8.527c.016.226.016.452.016.678A14.723,14.723,0,0,1,8,24.028a14.724,14.724,0,0,1-8-2.339,10.778,10.778,0,0,0,1.258.065,10.435,10.435,0,0,0,6.468-2.226,5.219,5.219,0,0,1-4.872-3.613A6.571,6.571,0,0,0,3.839,16a5.511,5.511,0,0,0,1.371-.177A5.211,5.211,0,0,1,1.032,10.7V10.64a5.247,5.247,0,0,0,2.355.661A5.218,5.218,0,0,1,1.774,4.332,14.81,14.81,0,0,0,12.518,9.785a5.882,5.882,0,0,1-.129-1.194,5.215,5.215,0,0,1,9.017-3.565,10.258,10.258,0,0,0,3.307-1.258,5.2,5.2,0,0,1-2.291,2.871,10.445,10.445,0,0,0,3-.807A11.2,11.2,0,0,1,22.809,8.527Z" transform="translate(12.482 11.425)" fill="#fff"/>
    </g>
  </g>
</svg>
