<svg xmlns="http://www.w3.org/2000/svg" width="50" height="50" viewBox="0 0 50 50">
  <g id="Group_124" data-name="Group 124" transform="translate(-195 -690)">
    <circle id="Ellipse_59" data-name="Ellipse 59" cx="25" cy="25" r="25" transform="translate(195 690)" fill="#11bd16"/>
    <path id="Icon_awesome-whatsapp" data-name="Icon awesome-whatsapp" d="M23.032,6.186A13.428,13.428,0,0,0,1.9,22.386L0,29.34l7.117-1.868A13.383,13.383,0,0,0,13.533,29.1h.006A13.553,13.553,0,0,0,27.09,15.68a13.477,13.477,0,0,0-4.057-9.493ZM13.539,26.842a11.138,11.138,0,0,1-5.684-1.554l-.405-.242L3.229,26.153l1.125-4.118-.266-.423A11.179,11.179,0,1,1,24.822,15.68,11.282,11.282,0,0,1,13.539,26.842Zm6.119-8.357c-.333-.169-1.983-.98-2.292-1.088s-.532-.169-.756.169-.865,1.088-1.064,1.318-.393.254-.726.085a9.13,9.13,0,0,1-4.565-3.991c-.345-.593.345-.55.986-1.832a.622.622,0,0,0-.03-.587c-.085-.169-.756-1.82-1.034-2.491-.272-.653-.55-.562-.756-.574S9,9.482,8.78,9.482a1.243,1.243,0,0,0-.895.417,3.769,3.769,0,0,0-1.173,2.8A6.571,6.571,0,0,0,8.078,16.17a14.989,14.989,0,0,0,5.732,5.067c2.128.919,2.963,1,4.027.84a3.436,3.436,0,0,0,2.261-1.6,2.805,2.805,0,0,0,.193-1.6C20.214,18.733,19.991,18.649,19.658,18.486Z" transform="translate(206.891 698.792)" fill="#fff"/>
  </g>
</svg>
